# xmcd
#
# Track frame offsets: 
#        150
#        12504
#        28811
#        50009
#        77542
#        98598
#        133179
#        179381
#        195388
#        217856
#        236826
#        255142
#        268681
#        290622
#        309047
#        316316
#
# Disc length: 4254 seconds
#
# Revision: 0
# Processed by: cddbd v1.5.1PL0 Copyright (c) Steve Scherf et al.
# Submitted via: ExactAudioCopy v0.95a5
#
DISCID=d4109c10
DTITLE=Blue Combo - Sassy Sauce
DYEAR=2000
DGENRE=Blues
TTITLE0=Give Me Your Love
TTITLE1=Ring Ding Doo
TTITLE2=Ala King
TTITLE3=Happy Every Day
TTITLE4=Where You Been
TTITLE5=Greasy Gravy
TTITLE6=Bayou Blood
TTITLE7=I'll Wait For You
TTITLE8=5-10-15 Hours
TTITLE9=I Want a Little Sugar in My Bowl
TTITLE10=T-Bone
TTITLE11=Let's Make a Home
TTITLE12=Tight Fit
TTITLE13=Three Handed Woman
TTITLE14=One Monkey Don't Stop No Show
TTITLE15=Blue Thing
EXTD=
EXTT0=
EXTT1=
EXTT2=
EXTT3=
EXTT4=
EXTT5=
EXTT6=
EXTT7=
EXTT8=
EXTT9=
EXTT10=
EXTT11=
EXTT12=
EXTT13=
EXTT14=
EXTT15=
PLAYORDER=
